# xmcd
#
# Track frame offsets: 
#        150
#        13875
#        26305
#        38390
#        53815
#        67130
#        80575
#        94475
#        115735
#        136215
#        153305
#        164420
#
# Disc length: 2402 seconds
#
# Revision: 0
# Processed by: cddbd v1.5.2PL0 Copyright (c) Steve Scherf et al.
# Submitted via: ExactAudioCopy v1.3
#
DISCID=9609600c
DTITLE=Steve Earle - Alternate I Feel Alright
DYEAR=1900
DGENRE=Country
TTITLE0=I Feel Alright
TTITLE1=Hard Core Troubadour
TTITLE2=More Than I Can Do
TTITLE3=Hurtin' Me Hurtin' You
TTITLE4=Now She's Gone
TTITLE5=Poor Boy
TTITLE6=Valentine's Day
TTITLE7=The Unrepentant
TTITLE8=CCKMP
TTITLE9=Billy and Bonnie
TTITLE10=South Nashville Blues
TTITLE11=You're Still Standin' There
EXTD=
EXTT0=
EXTT1=
EXTT2=
EXTT3=
EXTT4=
EXTT5=
EXTT6=
EXTT7=
EXTT8=
EXTT9=
EXTT10=
EXTT11=
PLAYORDER=
